<svg width="102" height="102" viewBox="0 0 102 102" fill="none" xmlns="http://www.w3.org/2000/svg">
<rect width="102" height="102" rx="20" fill="#16960A"/>
<mask id="mask0_159_331" style="mask-type:alpha" maskUnits="userSpaceOnUse" x="22" y="22" width="58" height="58">
<rect x="22" y="22" width="58" height="58" fill="white"/>
</mask>
<g mask="url(#mask0_159_331)">
<path d="M37.7085 24.416C41.1321 24.416 43.8005 25.9365 45.7137 28.9775C47.6269 32.0184 48.5835 35.3313 48.5835 38.916C48.5835 40.5674 48.4123 42.1382 48.07 43.6285C47.7276 45.1188 47.3349 46.448 46.8918 47.616L29.6731 51.0598C29.0689 49.8917 28.4446 48.2705 27.8002 46.1962C27.1557 44.1219 26.8335 41.6952 26.8335 38.916C26.8335 34.7674 27.8606 31.3136 29.9147 28.5546C31.9689 25.7955 34.5668 24.416 37.7085 24.416ZM41.0314 65.4994C38.1717 65.4994 35.9463 64.5025 34.3554 62.5087C32.7644 60.515 31.8682 58.2091 31.6668 55.591L47.2543 52.4494C47.5765 53.1341 47.8786 53.9094 48.1606 54.7754C48.4425 55.6414 48.5835 56.5375 48.5835 57.4639C48.5835 59.7598 47.8686 61.673 46.4387 63.2035C45.0088 64.7341 43.2064 65.4994 41.0314 65.4994ZM64.2918 36.4993C67.4335 36.4993 70.0314 37.8789 72.0856 40.6379C74.1397 43.3969 75.1668 46.8507 75.1668 50.9993C75.1668 53.7785 74.8446 56.2053 74.2002 58.2796C73.5557 60.3539 72.9314 61.975 72.3272 63.1431L55.1085 59.6994C54.6654 58.5313 54.2727 57.2021 53.9304 55.7118C53.588 54.2216 53.4168 52.6507 53.4168 50.9993C53.4168 47.4146 54.3734 44.1018 56.2866 41.0608C58.1998 38.0198 60.8682 36.4993 64.2918 36.4993ZM60.9689 77.5827C58.7939 77.5827 56.9915 76.8174 55.5616 75.2869C54.1318 73.7563 53.4168 71.8431 53.4168 69.5473C53.4168 68.6209 53.5578 67.7247 53.8397 66.8587C54.1217 65.9928 54.4238 65.2174 54.746 64.5327L70.2731 67.6743C70.0717 70.2924 69.1856 72.5983 67.6147 74.5921C66.0439 76.5858 63.8286 77.5827 60.9689 77.5827Z" fill="white"/>
</g>
</svg>
