<svg width="16" height="16" viewBox="0 0 16 16" fill="none" xmlns="http://www.w3.org/2000/svg">
<path d="M2.8 14C2.35817 14 2 13.6418 2 13.2V6.43293C2 6.16562 2.13352 5.91596 2.35585 5.76755L7.55562 2.29663C7.82463 2.11706 8.17531 2.11714 8.44424 2.29685L13.6445 5.7717C13.8666 5.92014 14 6.16968 14 6.43686V13.2C14 13.6418 13.6418 14 13.2 14H10.4043C9.96245 14 9.60428 13.6418 9.60428 13.2V9.99469C9.60428 9.55287 9.24611 9.19469 8.80428 9.19469H7.19962C6.75779 9.19469 6.39962 9.55287 6.39962 9.99469V13.2C6.39962 13.6418 6.04145 14 5.59962 14H2.8Z" fill="#222122"/>
</svg>
